<svg width="200" height="30" viewBox="0 0 200 30" fill="none" xmlns="http://www.w3.org/2000/svg">
<path d="M50.0754 0.745142C64.6154 0.745142 79.1554 0.745142 94.1359 0.745142C94.1359 0.802161 94.1359 0.859181 94.1359 0.917928C94.364 0.917928 94.5921 0.917928 94.8271 0.917928C94.8271 0.974948 94.8271 1.03197 94.8271 1.09071C94.9981 1.09071 95.1692 1.09071 95.3454 1.09071C95.3454 1.14773 95.3454 1.20475 95.3454 1.2635C95.5165 1.2635 95.6875 1.2635 95.8638 1.2635C95.8638 1.32052 95.8638 1.37754 95.8638 1.43629C95.9778 1.43629 96.0919 1.43629 96.2094 1.43629C96.2094 1.49331 96.2094 1.55033 96.2094 1.60907C96.3234 1.60907 96.4374 1.60907 96.5549 1.60907C96.5549 1.66609 96.5549 1.72311 96.5549 1.78186C96.669 1.78186 96.783 1.78186 96.9005 1.78186C96.9005 1.83888 96.9005 1.8959 96.9005 1.95465C96.9575 1.95465 97.0145 1.95465 97.0733 1.95465C97.0733 2.01166 97.0733 2.06868 97.0733 2.12743C97.1873 2.12743 97.3014 2.12743 97.4189 2.12743C97.4189 2.18445 97.4189 2.24147 97.4189 2.30022C97.4759 2.30022 97.5329 2.30022 97.5916 2.30022C97.5916 2.35724 97.5916 2.41426 97.5916 2.473C97.6487 2.473 97.7057 2.473 97.7644 2.473C97.7644 2.53002 97.7644 2.58704 97.7644 2.64579C97.8785 2.64579 97.9925 2.64579 98.11 2.64579C98.11 2.70281 98.11 2.75983 98.11 2.81858C98.167 2.81858 98.224 2.81858 98.2828 2.81858C98.2828 2.8756 98.2828 2.93261 98.2828 2.99136C98.3398 2.99136 98.3968 2.99136 98.4556 2.99136C98.4556 3.04838 98.4556 3.1054 98.4556 3.16415C98.5126 3.16415 98.5696 3.16415 98.6284 3.16415C98.6284 3.22117 98.6284 3.27819 98.6284 3.33693C98.6854 3.33693 98.7424 3.33693 98.8011 3.33693C98.8011 3.39395 98.8011 3.45097 98.8011 3.50972C98.8582 3.50972 98.9152 3.50972 98.9739 3.50972C98.9739 3.56674 98.9739 3.62376 98.9739 3.68251C99.031 3.68251 99.088 3.68251 99.1467 3.68251C99.1467 3.73953 99.1467 3.79655 99.1467 3.85529C99.2037 3.85529 99.2608 3.85529 99.3195 3.85529C99.3195 3.96933 99.3195 4.08337 99.3195 4.20087C99.3765 4.20087 99.4335 4.20087 99.4923 4.20087C99.4923 4.25788 99.4923 4.3149 99.4923 4.37365C99.5493 4.37365 99.6063 4.37365 99.6651 4.37365C99.6651 4.48769 99.6651 4.60173 99.6651 4.71922C99.7221 4.71922 99.7791 4.71922 99.8379 4.71922C99.8379 4.77624 99.8379 4.83326 99.8379 4.89201C99.8949 4.89201 99.9519 4.89201 100.011 4.89201C100.011 5.00605 100.011 5.12009 100.011 5.23758C100.068 5.23758 100.125 5.23758 100.183 5.23758C100.183 5.35162 100.183 5.46566 100.183 5.58315C100.24 5.58315 100.297 5.58315 100.356 5.58315C100.356 5.69719 100.356 5.81123 100.356 5.92873C100.413 5.92873 100.47 5.92873 100.529 5.92873C100.529 6.04277 100.529 6.15681 100.529 6.2743C100.586 6.2743 100.643 6.2743 100.702 6.2743C100.702 6.44536 100.702 6.61642 100.702 6.79266C100.759 6.79266 100.816 6.79266 100.875 6.79266C100.875 6.96372 100.875 7.13477 100.875 7.31102C100.932 7.31102 100.989 7.31102 101.047 7.31102C101.047 7.59611 101.047 7.88121 101.047 8.17495C101.104 8.17495 101.161 8.17495 101.22 8.17495C101.22 12.7365 101.22 17.2981 101.22 21.9978C101.163 21.9978 101.106 21.9978 101.047 21.9978C101.047 22.2829 101.047 22.568 101.047 22.8618C100.99 22.8618 100.933 22.8618 100.875 22.8618C100.875 23.0328 100.875 23.2039 100.875 23.3801C100.818 23.3801 100.761 23.3801 100.702 23.3801C100.702 23.5512 100.702 23.7222 100.702 23.8985C100.645 23.8985 100.588 23.8985 100.529 23.8985C100.529 24.0125 100.529 24.1266 100.529 24.2441C100.472 24.2441 100.415 24.2441 100.356 24.2441C100.356 24.3581 100.356 24.4721 100.356 24.5896C100.299 24.5896 100.242 24.5896 100.183 24.5896C100.183 24.7037 100.183 24.8177 100.183 24.9352C100.126 24.9352 100.069 24.9352 100.011 24.9352C100.011 25.0492 100.011 25.1633 100.011 25.2808C99.9536 25.2808 99.8966 25.2808 99.8379 25.2808C99.8379 25.3948 99.8379 25.5089 99.8379 25.6264C99.7808 25.6264 99.7238 25.6264 99.6651 25.6264C99.6651 25.6834 99.6651 25.7404 99.6651 25.7991C99.6081 25.7991 99.551 25.7991 99.4923 25.7991C99.4923 25.8562 99.4923 25.9132 99.4923 25.9719C99.4353 25.9719 99.3783 25.9719 99.3195 25.9719C99.3195 26.086 99.3195 26.2 99.3195 26.3175C99.2625 26.3175 99.2055 26.3175 99.1467 26.3175C99.1467 26.3745 99.1467 26.4315 99.1467 26.4903C99.0897 26.4903 99.0327 26.4903 98.9739 26.4903C98.9739 26.5473 98.9739 26.6043 98.9739 26.6631C98.9169 26.6631 98.8599 26.6631 98.8011 26.6631C98.8011 26.7201 98.8011 26.7771 98.8011 26.8359C98.7441 26.8359 98.6871 26.8359 98.6284 26.8359C98.6284 26.8929 98.6284 26.9499 98.6284 27.0086C98.5713 27.0086 98.5143 27.0086 98.4556 27.0086C98.4556 27.0657 98.4556 27.1227 98.4556 27.1814C98.3986 27.1814 98.3415 27.1814 98.2828 27.1814C98.2828 27.2384 98.2828 27.2955 98.2828 27.3542C98.2258 27.3542 98.1687 27.3542 98.11 27.3542C98.11 27.4112 98.11 27.4683 98.11 27.527C98.053 27.527 97.996 27.527 97.9372 27.527C97.9372 27.584 97.9372 27.641 97.9372 27.6998C97.8232 27.6998 97.7091 27.6998 97.5916 27.6998C97.5916 27.7568 97.5916 27.8138 97.5916 27.8726C97.5346 27.8726 97.4776 27.8726 97.4189 27.8726C97.4189 27.9296 97.4189 27.9866 97.4189 28.0454C97.3048 28.0454 97.1908 28.0454 97.0733 28.0454C97.0733 28.1024 97.0733 28.1594 97.0733 28.2181C97.0163 28.2181 96.9592 28.2181 96.9005 28.2181C96.9005 28.2752 96.9005 28.3322 96.9005 28.3909C96.7865 28.3909 96.6724 28.3909 96.5549 28.3909C96.5549 28.4479 96.5549 28.505 96.5549 28.5637C96.4409 28.5637 96.3268 28.5637 96.2094 28.5637C96.2094 28.6207 96.2094 28.6778 96.2094 28.7365C96.0953 28.7365 95.9813 28.7365 95.8638 28.7365C95.8638 28.7935 95.8638 28.8505 95.8638 28.9093C95.7497 28.9093 95.6357 28.9093 95.5182 28.9093C95.5182 28.9663 95.5182 29.0233 95.5182 29.0821C95.3472 29.0821 95.1761 29.0821 94.9998 29.0821C94.9998 29.1391 94.9998 29.1961 94.9998 29.2549C94.7718 29.2549 94.5437 29.2549 94.3087 29.2549C94.3087 29.3119 94.3087 29.3689 94.3087 29.4276C79.6547 29.4276 65.0007 29.4276 49.9027 29.4276C49.9027 29.3706 49.9027 29.3136 49.9027 29.2549C49.6746 29.2549 49.4465 29.2549 49.2115 29.2549C49.2115 29.1978 49.2115 29.1408 49.2115 29.0821C49.0405 29.0821 48.8694 29.0821 48.6932 29.0821C48.6932 29.0251 48.6932 28.968 48.6932 28.9093C48.5791 28.9093 48.4651 28.9093 48.3476 28.9093C48.3476 28.8523 48.3476 28.7952 48.3476 28.7365C48.2335 28.7365 48.1195 28.7365 48.002 28.7365C48.002 28.6795 48.002 28.6225 48.002 28.5637C47.888 28.5637 47.7739 28.5637 47.6564 28.5637C47.6564 28.5067 47.6564 28.4497 47.6564 28.3909C47.5424 28.3909 47.4284 28.3909 47.3109 28.3909C47.3109 28.3339 47.3109 28.2769 47.3109 28.2181C47.1968 28.2181 47.0828 28.2181 46.9653 28.2181C46.9653 28.1611 46.9653 28.1041 46.9653 28.0454C46.9083 28.0454 46.8513 28.0454 46.7925 28.0454C46.7925 27.9883 46.7925 27.9313 46.7925 27.8726C46.7355 27.8726 46.6785 27.8726 46.6197 27.8726C46.6197 27.8156 46.6197 27.7585 46.6197 27.6998C46.5057 27.6998 46.3916 27.6998 46.2741 27.6998C46.2741 27.6428 46.2741 27.5857 46.2741 27.527C46.2171 27.527 46.1601 27.527 46.1014 27.527C46.1014 27.47 46.1014 27.413 46.1014 27.3542C46.0443 27.3542 45.9873 27.3542 45.9286 27.3542C45.9286 27.2972 45.9286 27.2402 45.9286 27.1814C45.8716 27.1814 45.8145 27.1814 45.7558 27.1814C45.7558 27.1244 45.7558 27.0674 45.7558 27.0086C45.6988 27.0086 45.6418 27.0086 45.583 27.0086C45.583 26.9516 45.583 26.8946 45.583 26.8359C45.526 26.8359 45.469 26.8359 45.4102 26.8359C45.4102 26.7788 45.4102 26.7218 45.4102 26.6631C45.3532 26.6631 45.2962 26.6631 45.2374 26.6631C45.2374 26.606 45.2374 26.549 45.2374 26.4903C45.1804 26.4903 45.1234 26.4903 45.0646 26.4903C45.0646 26.4333 45.0646 26.3762 45.0646 26.3175C45.0076 26.3175 44.9506 26.3175 44.8919 26.3175C44.8919 26.2605 44.8919 26.2035 44.8919 26.1447C44.8348 26.1447 44.7778 26.1447 44.7191 26.1447C44.7191 26.0307 44.7191 25.9166 44.7191 25.7991C44.6621 25.7991 44.605 25.7991 44.5463 25.7991C44.5463 25.7421 44.5463 25.6851 44.5463 25.6264C44.4893 25.6264 44.4322 25.6264 44.3735 25.6264C44.3735 25.5123 44.3735 25.3983 44.3735 25.2808C44.3165 25.2808 44.2595 25.2808 44.2007 25.2808C44.2007 25.2238 44.2007 25.1667 44.2007 25.108C44.1437 25.108 44.0867 25.108 44.0279 25.108C44.0279 24.994 44.0279 24.8799 44.0279 24.7624C43.9709 24.7624 43.9139 24.7624 43.8551 24.7624C43.8551 24.6484 43.8551 24.5343 43.8551 24.4168C43.7981 24.4168 43.7411 24.4168 43.6824 24.4168C43.6824 24.2458 43.6824 24.0747 43.6824 23.8985C43.6253 23.8985 43.5683 23.8985 43.5096 23.8985C43.5096 23.7845 43.5096 23.6704 43.5096 23.5529C43.4526 23.5529 43.3955 23.5529 43.3368 23.5529C43.3368 23.3248 43.3368 23.0968 43.3368 22.8618C43.2798 22.8618 43.2227 22.8618 43.164 22.8618C43.164 22.6337 43.164 22.4056 43.164 22.1706C43.107 22.1706 43.05 22.1706 42.9912 22.1706C42.9912 17.495 42.9912 12.8194 42.9912 8.00216C43.0482 8.00216 43.1052 8.00216 43.164 8.00216C43.164 7.77408 43.164 7.54601 43.164 7.31102C43.221 7.31102 43.278 7.31102 43.3368 7.31102C43.3368 7.08294 43.3368 6.85486 43.3368 6.61987C43.3938 6.61987 43.4508 6.61987 43.5096 6.61987C43.5096 6.50583 43.5096 6.39179 43.5096 6.2743C43.5666 6.2743 43.6236 6.2743 43.6824 6.2743C43.6824 6.10324 43.6824 5.93218 43.6824 5.75594C43.7394 5.75594 43.7964 5.75594 43.8551 5.75594C43.8551 5.6419 43.8551 5.52786 43.8551 5.41037C43.9122 5.41037 43.9692 5.41037 44.0279 5.41037C44.0279 5.35335 44.0279 5.29633 44.0279 5.23758C44.0849 5.23758 44.142 5.23758 44.2007 5.23758C44.2007 5.12354 44.2007 5.0095 44.2007 4.89201C44.2577 4.89201 44.3148 4.89201 44.3735 4.89201C44.3735 4.77797 44.3735 4.66393 44.3735 4.54644C44.4305 4.54644 44.4875 4.54644 44.5463 4.54644C44.5463 4.48942 44.5463 4.4324 44.5463 4.37365C44.6033 4.37365 44.6603 4.37365 44.7191 4.37365C44.7191 4.31663 44.7191 4.25961 44.7191 4.20087C44.7761 4.20087 44.8331 4.20087 44.8919 4.20087C44.8919 4.08683 44.8919 3.97279 44.8919 3.85529C44.9489 3.85529 45.0059 3.85529 45.0646 3.85529C45.0646 3.79827 45.0646 3.74125 45.0646 3.68251C45.1217 3.68251 45.1787 3.68251 45.2374 3.68251C45.2374 3.62549 45.2374 3.56847 45.2374 3.50972C45.2945 3.50972 45.3515 3.50972 45.4102 3.50972C45.4102 3.4527 45.4102 3.39568 45.4102 3.33693C45.4672 3.33693 45.5243 3.33693 45.583 3.33693C45.583 3.27992 45.583 3.2229 45.583 3.16415C45.64 3.16415 45.697 3.16415 45.7558 3.16415C45.7558 3.10713 45.7558 3.05011 45.7558 2.99136C45.8128 2.99136 45.8698 2.99136 45.9286 2.99136C45.9286 2.93434 45.9286 2.87732 45.9286 2.81858C45.9856 2.81858 46.0426 2.81858 46.1014 2.81858C46.1014 2.76156 46.1014 2.70454 46.1014 2.64579C46.1584 2.64579 46.2154 2.64579 46.2741 2.64579C46.2741 2.58877 46.2741 2.53175 46.2741 2.473C46.3882 2.473 46.5022 2.473 46.6197 2.473C46.6197 2.41598 46.6197 2.35896 46.6197 2.30022C46.6767 2.30022 46.7338 2.30022 46.7925 2.30022C46.7925 2.2432 46.7925 2.18618 46.7925 2.12743C46.9065 2.12743 47.0206 2.12743 47.1381 2.12743C47.1381 2.07041 47.1381 2.01339 47.1381 1.95465C47.1951 1.95465 47.2521 1.95465 47.3109 1.95465C47.3109 1.89763 47.3109 1.84061 47.3109 1.78186C47.4249 1.78186 47.5389 1.78186 47.6564 1.78186C47.6564 1.72484 47.6564 1.66782 47.6564 1.60907C47.7705 1.60907 47.8845 1.60907 48.002 1.60907C48.002 1.55205 48.002 1.49503 48.002 1.43629C48.116 1.43629 48.2301 1.43629 48.3476 1.43629C48.3476 1.37927 48.3476 1.32225 48.3476 1.2635C48.5186 1.2635 48.6897 1.2635 48.8659 1.2635C48.8659 1.20648 48.8659 1.14946 48.8659 1.09071C49.037 1.09071 49.2081 1.09071 49.3843 1.09071C49.3843 1.03369 49.3843 0.976675 49.3843 0.917928C49.6124 0.917928 49.8405 0.917928 50.0754 0.917928C50.0754 0.860909 50.0754 0.803889 50.0754 0.745142ZM52.6672 5.41037C52.6672 5.46739 52.6672 5.52441 52.6672 5.58315C52.3821 5.58315 52.097 5.58315 51.8033 5.58315C51.8033 5.64017 51.8033 5.69719 51.8033 5.75594C51.6322 5.75594 51.4612 5.75594 51.2849 5.75594C51.2849 5.81296 51.2849 5.86998 51.2849 5.92873C51.1709 5.92873 51.0569 5.92873 50.9394 5.92873C50.9394 5.98575 50.9394 6.04277 50.9394 6.10151C50.8253 6.10151 50.7113 6.10151 50.5938 6.10151C50.5938 6.15853 50.5938 6.21555 50.5938 6.2743C50.4798 6.2743 50.3657 6.2743 50.2482 6.2743C50.2482 6.33132 50.2482 6.38834 50.2482 6.44709C50.1912 6.44709 50.1342 6.44709 50.0754 6.44709C50.0754 6.50411 50.0754 6.56112 50.0754 6.61987C49.9614 6.61987 49.8474 6.61987 49.7299 6.61987C49.7299 6.67689 49.7299 6.73391 49.7299 6.79266C49.6729 6.79266 49.6158 6.79266 49.5571 6.79266C49.5571 6.84968 49.5571 6.9067 49.5571 6.96544C49.5001 6.96544 49.443 6.96544 49.3843 6.96544C49.3843 7.02246 49.3843 7.07948 49.3843 7.13823C49.3273 7.13823 49.2703 7.13823 49.2115 7.13823C49.2115 7.19525 49.2115 7.25227 49.2115 7.31102C49.1545 7.31102 49.0975 7.31102 49.0387 7.31102C49.0387 7.36804 49.0387 7.42506 49.0387 7.4838C48.9817 7.4838 48.9247 7.4838 48.8659 7.4838C48.8659 7.54082 48.8659 7.59784 48.8659 7.65659C48.8089 7.65659 48.7519 7.65659 48.6932 7.65659C48.6932 7.77063 48.6932 7.88467 48.6932 8.00216C48.6361 8.00216 48.5791 8.00216 48.5204 8.00216C48.5204 8.05918 48.5204 8.1162 48.5204 8.17495C48.4633 8.17495 48.4063 8.17495 48.3476 8.17495C48.3476 8.28899 48.3476 8.40303 48.3476 8.52052C48.2906 8.52052 48.2335 8.52052 48.1748 8.52052C48.1748 8.63456 48.1748 8.7486 48.1748 8.86609C48.1178 8.86609 48.0608 8.86609 48.002 8.86609C48.002 9.03715 48.002 9.20821 48.002 9.38445C47.945 9.38445 47.888 9.38445 47.8292 9.38445C47.8292 9.66955 47.8292 9.95465 47.8292 10.2484C47.7722 10.2484 47.7152 10.2484 47.6564 10.2484C47.6564 13.4985 47.6564 16.7486 47.6564 20.0972C47.7135 20.0972 47.7705 20.0972 47.8292 20.0972C47.8292 20.3253 47.8292 20.5533 47.8292 20.7883C47.8862 20.7883 47.9433 20.7883 48.002 20.7883C48.002 20.9024 48.002 21.0164 48.002 21.1339C48.059 21.1339 48.116 21.1339 48.1748 21.1339C48.1748 21.305 48.1748 21.476 48.1748 21.6523C48.2318 21.6523 48.2888 21.6523 48.3476 21.6523C48.3476 21.7663 48.3476 21.8803 48.3476 21.9978C48.4046 21.9978 48.4616 21.9978 48.5204 21.9978C48.5204 22.0549 48.5204 22.1119 48.5204 22.1706C48.5774 22.1706 48.6344 22.1706 48.6932 22.1706C48.6932 22.2847 48.6932 22.3987 48.6932 22.5162C48.7502 22.5162 48.8072 22.5162 48.8659 22.5162C48.8659 22.5732 48.8659 22.6302 48.8659 22.689C48.923 22.689 48.98 22.689 49.0387 22.689C49.0387 22.746 49.0387 22.803 49.0387 22.8618C49.0957 22.8618 49.1528 22.8618 49.2115 22.8618C49.2115 22.9188 49.2115 22.9758 49.2115 23.0346C49.2685 23.0346 49.3256 23.0346 49.3843 23.0346C49.3843 23.0916 49.3843 23.1486 49.3843 23.2073C49.4413 23.2073 49.4983 23.2073 49.5571 23.2073C49.5571 23.2644 49.5571 23.3214 49.5571 23.3801C49.6141 23.3801 49.6711 23.3801 49.7299 23.3801C49.7299 23.4372 49.7299 23.4942 49.7299 23.5529C49.7869 23.5529 49.8439 23.5529 49.9027 23.5529C49.9027 23.6099 49.9027 23.667 49.9027 23.7257C50.0167 23.7257 50.1307 23.7257 50.2482 23.7257C50.2482 23.7827 50.2482 23.8397 50.2482 23.8985C50.3052 23.8985 50.3623 23.8985 50.421 23.8985C50.421 23.9555 50.421 24.0125 50.421 24.0713C50.5351 24.0713 50.6491 24.0713 50.7666 24.0713C50.7666 24.1283 50.7666 24.1853 50.7666 24.2441C50.8806 24.2441 50.9947 24.2441 51.1122 24.2441C51.1122 24.3011 51.1122 24.3581 51.1122 24.4168C51.2832 24.4168 51.4543 24.4168 51.6305 24.4168C51.6305 24.4739 51.6305 24.5309 51.6305 24.5896C51.8586 24.5896 52.0867 24.5896 52.3217 24.5896C52.3217 24.6467 52.3217 24.7037 52.3217 24.7624C65.3221 24.7624 78.3225 24.7624 91.7169 24.7624C91.7169 24.7054 91.7169 24.6484 91.7169 24.5896C92.002 24.5896 92.2871 24.5896 92.5808 24.5896C92.5808 24.5326 92.5808 24.4756 92.5808 24.4168C92.7519 24.4168 92.923 24.4168 93.0992 24.4168C93.0992 24.3598 93.0992 24.3028 93.0992 24.2441C93.2132 24.2441 93.3273 24.2441 93.4448 24.2441C93.4448 24.187 93.4448 24.13 93.4448 24.0713C93.5588 24.0713 93.6729 24.0713 93.7903 24.0713C93.7903 24.0143 93.7903 23.9572 93.7903 23.8985C93.8474 23.8985 93.9044 23.8985 93.9631 23.8985C93.9631 23.8415 93.9631 23.7845 93.9631 23.7257C94.0772 23.7257 94.1912 23.7257 94.3087 23.7257C94.3087 23.6687 94.3087 23.6117 94.3087 23.5529C94.3657 23.5529 94.4227 23.5529 94.4815 23.5529C94.4815 23.4959 94.4815 23.4389 94.4815 23.3801C94.5385 23.3801 94.5955 23.3801 94.6543 23.3801C94.6543 23.3231 94.6543 23.2661 94.6543 23.2073C94.7113 23.2073 94.7683 23.2073 94.8271 23.2073C94.8271 23.1503 94.8271 23.0933 94.8271 23.0346C94.8841 23.0346 94.9411 23.0346 94.9998 23.0346C94.9998 22.9775 94.9998 22.9205 94.9998 22.8618C95.0569 22.8618 95.1139 22.8618 95.1726 22.8618C95.1726 22.8048 95.1726 22.7477 95.1726 22.689C95.2297 22.689 95.2867 22.689 95.3454 22.689C95.3454 22.632 95.3454 22.5749 95.3454 22.5162C95.4024 22.5162 95.4595 22.5162 95.5182 22.5162C95.5182 22.4022 95.5182 22.2881 95.5182 22.1706C95.5752 22.1706 95.6322 22.1706 95.691 22.1706C95.691 22.0566 95.691 21.9426 95.691 21.8251C95.748 21.8251 95.805 21.8251 95.8638 21.8251C95.8638 21.768 95.8638 21.711 95.8638 21.6523C95.9208 21.6523 95.9778 21.6523 96.0366 21.6523C96.0366 21.4812 96.0366 21.3102 96.0366 21.1339C96.0936 21.1339 96.1506 21.1339 96.2094 21.1339C96.2094 21.0199 96.2094 20.9058 96.2094 20.7883C96.2664 20.7883 96.3234 20.7883 96.3821 20.7883C96.3821 20.5032 96.3821 20.2181 96.3821 19.9244C96.4392 19.9244 96.4962 19.9244 96.5549 19.9244C96.5549 16.7313 96.5549 13.5382 96.5549 10.2484C96.4979 10.2484 96.4409 10.2484 96.3821 10.2484C96.3821 10.0203 96.3821 9.79223 96.3821 9.55724C96.3251 9.55724 96.2681 9.55724 96.2094 9.55724C96.2094 9.38618 96.2094 9.21512 96.2094 9.03888C96.1523 9.03888 96.0953 9.03888 96.0366 9.03888C96.0366 8.92484 96.0366 8.8108 96.0366 8.69331C95.9795 8.69331 95.9225 8.69331 95.8638 8.69331C95.8638 8.57927 95.8638 8.46523 95.8638 8.34773C95.8068 8.34773 95.7497 8.34773 95.691 8.34773C95.691 8.23369 95.691 8.11966 95.691 8.00216C95.634 8.00216 95.577 8.00216 95.5182 8.00216C95.5182 7.94514 95.5182 7.88812 95.5182 7.82938C95.4612 7.82938 95.4042 7.82938 95.3454 7.82938C95.3454 7.71534 95.3454 7.6013 95.3454 7.4838C95.2884 7.4838 95.2314 7.4838 95.1726 7.4838C95.1726 7.42678 95.1726 7.36976 95.1726 7.31102C95.1156 7.31102 95.0586 7.31102 94.9998 7.31102C94.9998 7.254 94.9998 7.19698 94.9998 7.13823C94.9428 7.13823 94.8858 7.13823 94.8271 7.13823C94.8271 7.08121 94.8271 7.02419 94.8271 6.96544C94.77 6.96544 94.713 6.96544 94.6543 6.96544C94.6543 6.90842 94.6543 6.85141 94.6543 6.79266C94.5973 6.79266 94.5402 6.79266 94.4815 6.79266C94.4815 6.73564 94.4815 6.67862 94.4815 6.61987C94.3675 6.61987 94.2534 6.61987 94.1359 6.61987C94.1359 6.56285 94.1359 6.50583 94.1359 6.44709C94.0789 6.44709 94.0219 6.44709 93.9631 6.44709C93.9631 6.39007 93.9631 6.33305 93.9631 6.2743C93.9061 6.2743 93.8491 6.2743 93.7903 6.2743C93.7903 6.21728 93.7903 6.16026 93.7903 6.10151C93.6763 6.10151 93.5623 6.10151 93.4448 6.10151C93.4448 6.04449 93.4448 5.98747 93.4448 5.92873C93.3307 5.92873 93.2167 5.92873 93.0992 5.92873C93.0992 5.87171 93.0992 5.81469 93.0992 5.75594C92.9281 5.75594 92.7571 5.75594 92.5808 5.75594C92.5808 5.69892 92.5808 5.6419 92.5808 5.58315C92.2957 5.58315 92.0106 5.58315 91.7169 5.58315C91.7169 5.52614 91.7169 5.46912 91.7169 5.41037C78.8305 5.41037 65.9441 5.41037 52.6672 5.41037Z" fill="#171717"/>
<path d="M0.658203 0.572355C10.2375 0.572355 19.8167 0.572355 29.6863 0.572355C29.6863 0.629375 29.6863 0.686394 29.6863 0.745141C30.0854 0.745141 30.4846 0.745141 30.8958 0.745141C30.8958 0.802161 30.8958 0.85918 30.8958 0.917928C31.1239 0.917928 31.3519 0.917928 31.5869 0.917928C31.5869 0.974947 31.5869 1.03197 31.5869 1.09071C31.758 1.09071 31.929 1.09071 32.1053 1.09071C32.1053 1.14773 32.1053 1.20475 32.1053 1.2635C32.2763 1.2635 32.4474 1.2635 32.6236 1.2635C32.6236 1.32052 32.6236 1.37754 32.6236 1.43629C32.7377 1.43629 32.8517 1.43629 32.9692 1.43629C32.9692 1.49331 32.9692 1.55033 32.9692 1.60907C33.0833 1.60907 33.1973 1.60907 33.3148 1.60907C33.3148 1.66609 33.3148 1.72311 33.3148 1.78186C33.3718 1.78186 33.4288 1.78186 33.4876 1.78186C33.4876 1.83888 33.4876 1.8959 33.4876 1.95464C33.6016 1.95464 33.7157 1.95464 33.8331 1.95464C33.8331 2.01166 33.8331 2.06868 33.8331 2.12743C33.9472 2.12743 34.0612 2.12743 34.1787 2.12743C34.1787 2.18445 34.1787 2.24147 34.1787 2.30022C34.2357 2.30022 34.2928 2.30022 34.3515 2.30022C34.3515 2.35724 34.3515 2.41426 34.3515 2.473C34.4085 2.473 34.4655 2.473 34.5243 2.473C34.5243 2.53002 34.5243 2.58704 34.5243 2.64579C34.5813 2.64579 34.6383 2.64579 34.6971 2.64579C34.6971 2.70281 34.6971 2.75983 34.6971 2.81858C34.8111 2.81858 34.9252 2.81858 35.0427 2.81858C35.0427 2.8756 35.0427 2.93261 35.0427 2.99136C35.0997 2.99136 35.1567 2.99136 35.2154 2.99136C35.2154 3.04838 35.2154 3.1054 35.2154 3.16415C35.2725 3.16415 35.3295 3.16415 35.3882 3.16415C35.3882 3.22117 35.3882 3.27819 35.3882 3.33693C35.4452 3.33693 35.5023 3.33693 35.561 3.33693C35.561 3.39395 35.561 3.45097 35.561 3.50972C35.618 3.50972 35.675 3.50972 35.7338 3.50972C35.7338 3.62376 35.7338 3.7378 35.7338 3.85529C35.7908 3.85529 35.8478 3.85529 35.9066 3.85529C35.9066 3.91231 35.9066 3.96933 35.9066 4.02808C35.9636 4.02808 36.0206 4.02808 36.0794 4.02808C36.0794 4.0851 36.0794 4.14212 36.0794 4.20086C36.1364 4.20086 36.1934 4.20086 36.2522 4.20086C36.2522 4.3149 36.2522 4.42894 36.2522 4.54644C36.3092 4.54644 36.3662 4.54644 36.4249 4.54644C36.4249 4.60346 36.4249 4.66048 36.4249 4.71922C36.482 4.71922 36.539 4.71922 36.5977 4.71922C36.5977 4.83326 36.5977 4.9473 36.5977 5.0648C36.6547 5.0648 36.7118 5.0648 36.7705 5.0648C36.7705 5.12182 36.7705 5.17883 36.7705 5.23758C36.8275 5.23758 36.8846 5.23758 36.9433 5.23758C36.9433 5.35162 36.9433 5.46566 36.9433 5.58315C37.0003 5.58315 37.0573 5.58315 37.1161 5.58315C37.1161 5.69719 37.1161 5.81123 37.1161 5.92873C37.1731 5.92873 37.2301 5.92873 37.2889 5.92873C37.2889 6.09979 37.2889 6.27084 37.2889 6.44709C37.3459 6.44709 37.4029 6.44709 37.4617 6.44709C37.4617 6.61814 37.4617 6.7892 37.4617 6.96544C37.5187 6.96544 37.5757 6.96544 37.6344 6.96544C37.6344 7.19352 37.6344 7.4216 37.6344 7.65659C37.6915 7.65659 37.7485 7.65659 37.8072 7.65659C37.8072 7.99871 37.8072 8.34082 37.8072 8.69331C37.8643 8.69331 37.9213 8.69331 37.98 8.69331C37.98 12.9127 37.98 17.1322 37.98 21.4795C37.923 21.4795 37.866 21.4795 37.8072 21.4795C37.8072 21.8216 37.8072 22.1637 37.8072 22.5162C37.7502 22.5162 37.6932 22.5162 37.6344 22.5162C37.6344 22.7443 37.6344 22.9724 37.6344 23.2073C37.5774 23.2073 37.5204 23.2073 37.4617 23.2073C37.4617 23.3784 37.4617 23.5495 37.4617 23.7257C37.4046 23.7257 37.3476 23.7257 37.2889 23.7257C37.2889 23.8397 37.2889 23.9538 37.2889 24.0713C37.2319 24.0713 37.1748 24.0713 37.1161 24.0713C37.1161 24.2423 37.1161 24.4134 37.1161 24.5896C37.0591 24.5896 37.002 24.5896 36.9433 24.5896C36.9433 24.6467 36.9433 24.7037 36.9433 24.7624C36.8863 24.7624 36.8293 24.7624 36.7705 24.7624C36.7705 24.8765 36.7705 24.9905 36.7705 25.108C36.7135 25.108 36.6565 25.108 36.5977 25.108C36.5977 25.222 36.5977 25.3361 36.5977 25.4536C36.5407 25.4536 36.4837 25.4536 36.4249 25.4536C36.4249 25.5106 36.4249 25.5676 36.4249 25.6264C36.3679 25.6264 36.3109 25.6264 36.2522 25.6264C36.2522 25.7404 36.2522 25.8544 36.2522 25.9719C36.1951 25.9719 36.1381 25.9719 36.0794 25.9719C36.0794 26.0289 36.0794 26.086 36.0794 26.1447C36.0223 26.1447 35.9653 26.1447 35.9066 26.1447C35.9066 26.2017 35.9066 26.2587 35.9066 26.3175C35.8496 26.3175 35.7925 26.3175 35.7338 26.3175C35.7338 26.4315 35.7338 26.5456 35.7338 26.6631C35.6768 26.6631 35.6198 26.6631 35.561 26.6631C35.561 26.7201 35.561 26.7771 35.561 26.8359C35.504 26.8359 35.447 26.8359 35.3882 26.8359C35.3882 26.8929 35.3882 26.9499 35.3882 27.0086C35.3312 27.0086 35.2742 27.0086 35.2154 27.0086C35.2154 27.0657 35.2154 27.1227 35.2154 27.1814C35.1014 27.1814 34.9874 27.1814 34.8699 27.1814C34.8699 27.2384 34.8699 27.2955 34.8699 27.3542C34.8128 27.3542 34.7558 27.3542 34.6971 27.3542C34.6971 27.4112 34.6971 27.4683 34.6971 27.527C34.6401 27.527 34.583 27.527 34.5243 27.527C34.5243 27.584 34.5243 27.641 34.5243 27.6998C34.4673 27.6998 34.4103 27.6998 34.3515 27.6998C34.3515 27.7568 34.3515 27.8138 34.3515 27.8726C34.2375 27.8726 34.1234 27.8726 34.0059 27.8726C34.0059 27.9296 34.0059 27.9866 34.0059 28.0454C33.9489 28.0454 33.8919 28.0454 33.8331 28.0454C33.8331 28.1024 33.8331 28.1594 33.8331 28.2181C33.7191 28.2181 33.6051 28.2181 33.4876 28.2181C33.4876 28.2752 33.4876 28.3322 33.4876 28.3909C33.4306 28.3909 33.3735 28.3909 33.3148 28.3909C33.3148 28.4479 33.3148 28.505 33.3148 28.5637C33.2008 28.5637 33.0867 28.5637 32.9692 28.5637C32.9692 28.6207 32.9692 28.6778 32.9692 28.7365C32.7982 28.7365 32.6271 28.7365 32.4509 28.7365C32.4509 28.7935 32.4509 28.8505 32.4509 28.9093C32.3368 28.9093 32.2228 28.9093 32.1053 28.9093C32.1053 28.9663 32.1053 29.0233 32.1053 29.0821C31.9342 29.0821 31.7632 29.0821 31.5869 29.0821C31.5869 29.1391 31.5869 29.1961 31.5869 29.2549C31.3589 29.2549 31.1308 29.2549 30.8958 29.2549C30.8958 29.3119 30.8958 29.3689 30.8958 29.4276C20.9174 29.4276 10.939 29.4276 0.658203 29.4276C0.658203 19.9054 0.658203 10.3832 0.658203 0.572355ZM5.32343 5.41037C5.32343 11.7965 5.32343 18.1827 5.32343 24.7624C12.907 24.7624 20.4906 24.7624 28.304 24.7624C28.304 24.7054 28.304 24.6484 28.304 24.5896C28.5891 24.5896 28.8742 24.5896 29.1679 24.5896C29.1679 24.5326 29.1679 24.4756 29.1679 24.4168C29.339 24.4168 29.51 24.4168 29.6863 24.4168C29.6863 24.3598 29.6863 24.3028 29.6863 24.2441C29.8003 24.2441 29.9144 24.2441 30.0319 24.2441C30.0319 24.187 30.0319 24.13 30.0319 24.0713C30.1459 24.0713 30.2599 24.0713 30.3774 24.0713C30.3774 24.0143 30.3774 23.9572 30.3774 23.8985C30.4915 23.8985 30.6055 23.8985 30.723 23.8985C30.723 23.8415 30.723 23.7845 30.723 23.7257C30.78 23.7257 30.837 23.7257 30.8958 23.7257C30.8958 23.6687 30.8958 23.6117 30.8958 23.5529C31.0098 23.5529 31.1239 23.5529 31.2414 23.5529C31.2414 23.4959 31.2414 23.4389 31.2414 23.3801C31.2984 23.3801 31.3554 23.3801 31.4141 23.3801C31.4141 23.3231 31.4141 23.2661 31.4141 23.2073C31.4712 23.2073 31.5282 23.2073 31.5869 23.2073C31.5869 23.1503 31.5869 23.0933 31.5869 23.0346C31.6439 23.0346 31.701 23.0346 31.7597 23.0346C31.7597 22.9775 31.7597 22.9205 31.7597 22.8618C31.8167 22.8618 31.8738 22.8618 31.9325 22.8618C31.9325 22.7477 31.9325 22.6337 31.9325 22.5162C31.9895 22.5162 32.0465 22.5162 32.1053 22.5162C32.1053 22.4592 32.1053 22.4022 32.1053 22.3434C32.1623 22.3434 32.2193 22.3434 32.2781 22.3434C32.2781 22.2294 32.2781 22.1153 32.2781 21.9978C32.3351 21.9978 32.3921 21.9978 32.4509 21.9978C32.4509 21.9408 32.4509 21.8838 32.4509 21.8251C32.5079 21.8251 32.5649 21.8251 32.6236 21.8251C32.6236 21.711 32.6236 21.597 32.6236 21.4795C32.6807 21.4795 32.7377 21.4795 32.7964 21.4795C32.7964 21.3654 32.7964 21.2514 32.7964 21.1339C32.8535 21.1339 32.9105 21.1339 32.9692 21.1339C32.9692 20.9629 32.9692 20.7918 32.9692 20.6156C33.0262 20.6156 33.0833 20.6156 33.142 20.6156C33.142 20.2734 33.142 19.9313 33.142 19.5788C33.199 19.5788 33.256 19.5788 33.3148 19.5788C33.3148 16.6138 33.3148 13.6488 33.3148 10.594C33.2578 10.594 33.2008 10.594 33.142 10.594C33.142 10.3089 33.142 10.0238 33.142 9.73002C33.085 9.73002 33.028 9.73002 32.9692 9.73002C32.9692 9.55896 32.9692 9.38791 32.9692 9.21166C32.9122 9.21166 32.8552 9.21166 32.7964 9.21166C32.7964 9.04061 32.7964 8.86955 32.7964 8.69331C32.7394 8.69331 32.6824 8.69331 32.6236 8.69331C32.6236 8.57927 32.6236 8.46523 32.6236 8.34773C32.5666 8.34773 32.5096 8.34773 32.4509 8.34773C32.4509 8.29071 32.4509 8.23369 32.4509 8.17495C32.3938 8.17495 32.3368 8.17495 32.2781 8.17495C32.2781 8.06091 32.2781 7.94687 32.2781 7.82937C32.2211 7.82937 32.164 7.82937 32.1053 7.82937C32.1053 7.77236 32.1053 7.71534 32.1053 7.65659C32.0483 7.65659 31.9912 7.65659 31.9325 7.65659C31.9325 7.54255 31.9325 7.42851 31.9325 7.31102C31.8755 7.31102 31.8185 7.31102 31.7597 7.31102C31.7597 7.254 31.7597 7.19698 31.7597 7.13823C31.7027 7.13823 31.6457 7.13823 31.5869 7.13823C31.5869 7.08121 31.5869 7.02419 31.5869 6.96544C31.5299 6.96544 31.4729 6.96544 31.4141 6.96544C31.4141 6.90842 31.4141 6.8514 31.4141 6.79266C31.3571 6.79266 31.3001 6.79266 31.2414 6.79266C31.2414 6.73564 31.2414 6.67862 31.2414 6.61987C31.1273 6.61987 31.0133 6.61987 30.8958 6.61987C30.8958 6.56285 30.8958 6.50583 30.8958 6.44709C30.8388 6.44709 30.7817 6.44709 30.723 6.44709C30.723 6.39007 30.723 6.33305 30.723 6.2743C30.609 6.2743 30.4949 6.2743 30.3774 6.2743C30.3774 6.21728 30.3774 6.16026 30.3774 6.10151C30.2634 6.10151 30.1493 6.10151 30.0319 6.10151C30.0319 6.04449 30.0319 5.98747 30.0319 5.92873C29.9178 5.92873 29.8038 5.92873 29.6863 5.92873C29.6863 5.87171 29.6863 5.81469 29.6863 5.75594C29.5722 5.75594 29.4582 5.75594 29.3407 5.75594C29.3407 5.69892 29.3407 5.6419 29.3407 5.58315C29.0556 5.58315 28.7705 5.58315 28.4768 5.58315C28.4768 5.52613 28.4768 5.46912 28.4768 5.41037C20.8362 5.41037 13.1956 5.41037 5.32343 5.41037Z" fill="#171717"/>
<path d="M105.021 0.745142C117.509 0.745142 129.996 0.745142 142.862 0.745142C142.862 2.28467 142.862 3.82419 142.862 5.41037C137.388 5.41037 131.914 5.41037 126.274 5.41037C126.274 13.3361 126.274 21.2618 126.274 29.4276C124.735 29.4276 123.195 29.4276 121.609 29.4276C121.609 21.5019 121.609 13.5762 121.609 5.41037C116.135 5.41037 110.661 5.41037 105.021 5.41037C105.021 3.87084 105.021 2.33132 105.021 0.745142Z" fill="#171717"/>
<path d="M148.563 0.745142C150.103 0.745142 151.643 0.745142 153.229 0.745142C153.229 10.2104 153.229 19.6756 153.229 29.4276C151.689 29.4276 150.15 29.4276 148.563 29.4276C148.563 19.9624 148.563 10.4972 148.563 0.745142Z" fill="#171717"/>
<path d="M171.889 14.9352L158.239 0.572355H164.287L175.669 11.7819H182.041L193.358 0.572355H199.406L185.539 14.9352V15.4104L199.406 29.3845H193.358L182.041 18.1102H175.669L164.287 29.3845H158.239L171.889 15.4104V14.9352Z" fill="#171717"/>
</svg>
